<svg width="15" height="15" viewBox="0 0 15 15" fill="none" xmlns="http://www.w3.org/2000/svg">
<g id="arrows-alt" clip-path="url(#clip0_7067_1538)">
<path id="Vector" d="M10.3184 12.4734L7.99822 14.7936C7.72362 15.0682 7.27845 15.0682 7.00385 14.7936L4.68365 12.4734C4.24072 12.0305 4.55443 11.2731 5.18085 11.2731H6.67974L6.67971 8.31985H3.72647V9.81873C3.72647 10.4452 2.96911 10.7589 2.52614 10.3159L0.20595 7.99574C-0.0686499 7.72114 -0.0686499 7.27594 0.20595 7.00137L2.52614 4.68117C2.96908 4.23823 3.72647 4.55195 3.72647 5.17837V6.67922H6.67971V3.72598H5.17883C4.5524 3.72598 4.23869 2.96863 4.68163 2.52566L7.00183 0.205461C7.27643 -0.0691382 7.72159 -0.0691382 7.99619 0.205461L10.3164 2.52566C10.7593 2.9686 10.4456 3.72598 9.81919 3.72598H8.3203V6.67922H11.2735V5.18033C11.2735 4.55391 12.0309 4.2402 12.4738 4.68314L14.794 7.00333C15.0686 7.27793 15.0686 7.72313 14.794 7.9977L12.4738 10.3179C12.0309 10.7608 11.2735 10.4471 11.2735 9.8207V8.31985H8.32033V11.2731H9.82121C10.4476 11.2731 10.7614 12.0304 10.3184 12.4734Z" fill="#A49894"/>
</g>
<defs>
<clipPath id="clip0_7067_1538">
<rect width="15" height="15" fill="white"/>
</clipPath>
</defs>
</svg>
