<svg width="14" height="14" viewBox="0 0 14 14" fill="none" xmlns="http://www.w3.org/2000/svg">
<g id="ban" clip-path="url(#clip0_6618_8777)">
<path id="Vector" d="M7 0.21875C3.25484 0.21875 0.21875 3.25481 0.21875 7C0.21875 10.7452 3.25484 13.7812 7 13.7812C10.7452 13.7812 13.7812 10.7452 13.7812 7C13.7812 3.25484 10.7452 0.21875 7 0.21875ZM10.5576 3.44236C12.3472 5.23195 12.4717 7.96723 11.123 9.88556L4.11441 2.877C6.03405 1.52742 8.76903 1.65378 10.5576 3.44236ZM3.44236 10.5576C1.65277 8.76805 1.5283 6.03277 2.87697 4.11444L9.88559 11.123C7.96597 12.4726 5.23097 12.3463 3.44236 10.5576Z" fill="white"/>
</g>
<defs>
<clipPath id="clip0_6618_8777">
<rect width="14" height="14" fill="white"/>
</clipPath>
</defs>
</svg>
