<svg width="15" height="17" viewBox="0 0 15 17" fill="none" xmlns="http://www.w3.org/2000/svg">
<g id="bell" clip-path="url(#clip0_7067_1536)">
<path id="Vector" d="M7.50001 17C8.6826 17 9.64186 16.0487 9.64186 14.875H5.35816C5.35816 16.0487 6.31743 17 7.50001 17ZM14.7117 12.0292C14.0649 11.3399 12.8545 10.3029 12.8545 6.90625C12.8545 4.32637 11.0304 2.26113 8.57077 1.75445V1.0625C8.57077 0.475801 8.09131 0 7.50001 0C6.90872 0 6.42926 0.475801 6.42926 1.0625V1.75445C3.96966 2.26113 2.14556 4.32637 2.14556 6.90625C2.14556 10.3029 0.935178 11.3399 0.288304 12.0292C0.0874114 12.2433 -0.00165096 12.4993 2.31491e-05 12.75C0.00370618 13.2945 0.434621 13.8125 1.0748 13.8125H13.9252C14.5654 13.8125 14.9967 13.2945 15 12.75C15.0017 12.4993 14.9126 12.243 14.7117 12.0292Z" fill="#A49894"/>
</g>
<defs>
<clipPath id="clip0_7067_1536">
<rect width="15" height="17" fill="white"/>
</clipPath>
</defs>
</svg>
