<svg width="34" height="34" viewBox="0 0 34 34" fill="none" xmlns="http://www.w3.org/2000/svg">
<g id="check-circle" clip-path="url(#clip0_6905_12941)">
<path id="Vector" d="M33.4688 17C33.4688 26.0955 26.0955 33.4688 17 33.4688C7.90454 33.4688 0.53125 26.0955 0.53125 17C0.53125 7.90454 7.90454 0.53125 17 0.53125C26.0955 0.53125 33.4688 7.90454 33.4688 17ZM15.0951 25.7201L27.3138 13.5013C27.7287 13.0864 27.7287 12.4137 27.3138 11.9987L25.8112 10.4962C25.3963 10.0812 24.7236 10.0812 24.3086 10.4962L14.3438 20.461L9.69139 15.8086C9.27649 15.3937 8.60373 15.3937 8.18875 15.8086L6.68618 17.3112C6.27127 17.7261 6.27127 18.3988 6.68618 18.8138L13.5924 25.72C14.0074 26.135 14.6801 26.135 15.0951 25.7201Z" fill="white"/>
</g>
<defs>
<clipPath id="clip0_6905_12941">
<rect width="34" height="34" fill="white"/>
</clipPath>
</defs>
</svg>
