<svg width="17" height="17" viewBox="0 0 17 17" fill="none" xmlns="http://www.w3.org/2000/svg">
<g id="cogs" clip-path="url(#clip0_7067_1540)">
<path id="Vector" d="M13.6029 6.34112L13.3851 6.81592C13.3054 6.9919 13.1354 7.06495 12.984 6.99522C12.6706 6.84913 12.3837 6.63995 12.1313 6.37764C12.0092 6.25147 11.9773 6.02901 12.057 5.85635L12.2748 5.38155C12.0915 5.11592 11.9481 4.80713 11.8524 4.47178H11.4142C11.2548 4.47178 11.1167 4.32901 11.0901 4.12979C11.037 3.73135 11.0343 3.31299 11.0901 2.89795C11.1167 2.69873 11.2548 2.55264 11.4142 2.55264H11.8524C11.9481 2.21729 12.0915 1.9085 12.2748 1.64288L12.057 1.16807C11.9773 0.995414 12.0065 0.772953 12.1313 0.646781C12.3837 0.384477 12.6732 0.175297 12.984 0.0292031C13.1354 -0.0405235 13.3054 0.0325234 13.3851 0.2085L13.6029 0.683305C13.8818 0.620219 14.166 0.620219 14.4449 0.683305L14.6627 0.2085C14.7424 0.0325234 14.9124 -0.0405235 15.0638 0.0292031C15.3773 0.175297 15.6642 0.384477 15.9165 0.646781C16.0387 0.772953 16.0706 0.995414 15.9909 1.16807L15.7731 1.64288C15.9563 1.9085 16.0998 2.21729 16.1954 2.55264H16.6337C16.7931 2.55264 16.9312 2.69541 16.9577 2.89463C17.0109 3.29307 17.0135 3.71143 16.9577 4.12647C16.9312 4.32569 16.7931 4.47178 16.6337 4.47178H16.1954C16.0998 4.80713 15.9563 5.11592 15.7731 5.38155L15.9909 5.85635C16.0706 6.02901 16.0413 6.25147 15.9165 6.37764C15.6642 6.63995 15.3746 6.84913 15.0638 6.99522C14.9124 7.06495 14.7424 6.9919 14.6627 6.81592L14.4449 6.34112C14.1687 6.4042 13.8818 6.4042 13.6029 6.34112ZM13.324 4.38877C14.3467 5.37159 15.5127 3.91397 14.7265 2.63565C13.7038 1.64952 12.5377 3.11045 13.324 4.38877ZM10.2613 9.49874L11.1565 10.0565C11.4248 10.2491 11.5417 10.6575 11.4354 11.0228C11.199 11.8263 10.7342 12.5634 10.3038 13.2075C10.1073 13.503 9.76728 13.5761 9.499 13.3835L8.72603 12.8257C8.30103 13.2806 7.80697 13.6425 7.26775 13.8782V14.9939C7.26775 15.379 7.04728 15.711 6.74447 15.7774C6.09103 15.9169 5.40572 15.9235 4.72837 15.7774C4.4229 15.711 4.19712 15.3823 4.19712 14.9939V13.8782C3.65791 13.6392 3.16384 13.2806 2.73884 12.8257L1.96587 13.3802C1.70025 13.5728 1.35759 13.4997 1.16103 13.2042C0.730718 12.5601 0.276499 11.823 0.0400932 11.0228C-0.0661568 10.6608 0.0507182 10.2524 0.318999 10.0565L1.20353 9.49874C1.09994 8.80479 1.09994 8.09092 1.20353 7.39366L0.318999 6.83252C0.0507182 6.63995 -0.0688131 6.23155 0.0400932 5.86963C0.276499 5.06612 0.730718 4.32901 1.16103 3.68487C1.35759 3.38936 1.69759 3.31631 1.96587 3.50889L2.73884 4.0667C3.16384 3.61182 3.65791 3.24991 4.19712 3.01416V1.89522C4.19712 1.51338 4.41494 1.18135 4.71775 1.11495C5.37119 0.975492 6.05915 0.968852 6.7365 1.11163C7.04197 1.17803 7.26775 1.50674 7.26775 1.89522V3.01084C7.80697 3.24991 8.30103 3.6085 8.72603 4.06338L9.499 3.50557C9.76462 3.31299 10.1073 3.38604 10.3038 3.68155C10.7342 4.32569 11.1857 5.0628 11.4221 5.86631C11.5284 6.22823 11.4248 6.63663 11.1565 6.83252L10.2613 7.39034C10.3649 8.0876 10.3649 8.80147 10.2613 9.49874ZM7.13759 10.1993C8.71009 7.64268 6.37525 4.72413 4.32994 6.68975C2.75744 9.24639 5.09228 12.1649 7.13759 10.1993ZM13.6029 16.2655L13.3851 16.7403C13.3054 16.9163 13.1354 16.9894 12.984 16.9196C12.6706 16.7735 12.3837 16.5644 12.1313 16.3021C12.0092 16.1759 11.9773 15.9534 12.057 15.7808L12.2748 15.306C12.0915 15.0403 11.9481 14.7315 11.8524 14.3962H11.4142C11.2548 14.3962 11.1167 14.2534 11.0901 14.0542C11.037 13.6558 11.0343 13.2374 11.0901 12.8224C11.1167 12.6231 11.2548 12.4771 11.4142 12.4771H11.8524C11.9481 12.1417 12.0915 11.8329 12.2748 11.5673L12.057 11.0925C11.9773 10.9198 12.0065 10.6974 12.1313 10.5712C12.3837 10.3089 12.6732 10.0997 12.984 9.95362C13.1354 9.88389 13.3054 9.95694 13.3851 10.1329L13.6029 10.6077C13.8818 10.5446 14.166 10.5446 14.4449 10.6077L14.6627 10.1329C14.7424 9.95694 14.9124 9.88389 15.0638 9.95362C15.3773 10.0997 15.6642 10.3089 15.9165 10.5712C16.0387 10.6974 16.0706 10.9198 15.9909 11.0925L15.7731 11.5673C15.9563 11.8329 16.0998 12.1417 16.1954 12.4771H16.6337C16.7931 12.4771 16.9312 12.6198 16.9577 12.819C17.0109 13.2175 17.0135 13.6358 16.9577 14.0509C16.9312 14.2501 16.7931 14.3962 16.6337 14.3962H16.1954C16.0998 14.7315 15.9563 15.0403 15.7731 15.306L15.9909 15.7808C16.0706 15.9534 16.0413 16.1759 15.9165 16.3021C15.6642 16.5644 15.3746 16.7735 15.0638 16.9196C14.9124 16.9894 14.7424 16.9163 14.6627 16.7403L14.4449 16.2655C14.1687 16.3286 13.8818 16.3286 13.6029 16.2655ZM13.324 14.3099C14.3467 15.2927 15.5127 13.8351 14.7265 12.5567C13.7038 11.5739 12.5377 13.0315 13.324 14.3099Z" fill="#A49894"/>
</g>
<defs>
<clipPath id="clip0_7067_1540">
<rect width="17" height="17" fill="white"/>
</clipPath>
</defs>
</svg>
