<svg width="16" height="16" viewBox="0 0 16 16" fill="none" xmlns="http://www.w3.org/2000/svg">
<g id="file-invoice-dollar">
<path id="Vector" d="M13.7448 2.87109L10.1755 0.191406C10.0115 0.0683594 9.78906 0 9.55573 0H9.33333V3.5H14V3.3332C14 3.16094 13.9089 2.99414 13.7448 2.87109ZM8.16667 3.71875V0H0.875C0.390104 0 0 0.292578 0 0.65625V13.3438C0 13.7074 0.390104 14 0.875 14H13.125C13.6099 14 14 13.7074 14 13.3438V4.375H9.04167C8.56042 4.375 8.16667 4.07969 8.16667 3.71875ZM2.33333 1.96875C2.33333 1.84789 2.46385 1.75 2.625 1.75H5.54167C5.70281 1.75 5.83333 1.84789 5.83333 1.96875V2.40625C5.83333 2.52711 5.70281 2.625 5.54167 2.625H2.625C2.46385 2.625 2.33333 2.52711 2.33333 2.40625V1.96875ZM2.33333 4.15625V3.71875C2.33333 3.59789 2.46385 3.5 2.625 3.5H5.54167C5.70281 3.5 5.83333 3.59789 5.83333 3.71875V4.15625C5.83333 4.27711 5.70281 4.375 5.54167 4.375H2.625C2.46385 4.375 2.33333 4.27711 2.33333 4.15625ZM7.58333 11.3717V12.0312C7.58333 12.1521 7.45281 12.25 7.29167 12.25H6.70833C6.54719 12.25 6.41667 12.1521 6.41667 12.0312V11.3671C6.00505 11.3512 5.60474 11.2435 5.27297 11.0567C5.13078 10.9766 5.12349 10.8169 5.25219 10.7248L5.68057 10.4182C5.78156 10.3461 5.93177 10.3428 6.0499 10.3983C6.19099 10.4645 6.35104 10.5 6.51729 10.5H7.54213C7.77911 10.5 7.97234 10.3381 7.97234 10.1393C7.97234 9.97664 7.84073 9.83336 7.6526 9.79125L6.01198 9.42211C5.33422 9.26953 4.86063 8.78172 4.86063 8.23566C4.86063 7.5652 5.55516 7.02051 6.4163 7.00328V6.34375C6.4163 6.22289 6.54682 6.125 6.70797 6.125H7.2913C7.45245 6.125 7.58297 6.22289 7.58297 6.34375V7.00793C7.99458 7.02379 8.3949 7.13125 8.72667 7.31828C8.86885 7.3984 8.87615 7.55809 8.74745 7.65023L8.31906 7.95676C8.21807 8.02894 8.06786 8.03223 7.94974 7.97672C7.80865 7.91027 7.64859 7.875 7.48234 7.875H6.4575C6.22052 7.875 6.02729 8.03687 6.02729 8.23566C6.02729 8.39836 6.15891 8.54164 6.34703 8.58375L7.98766 8.95289C8.66542 9.10547 9.13901 9.59328 9.13901 10.1393C9.13901 10.8101 8.44448 11.3545 7.58333 11.3717Z" fill="#A49894"/>
</g>
</svg>
