<svg width="16" height="16" viewBox="0 0 16 16" fill="none" xmlns="http://www.w3.org/2000/svg">
<g id="house-user" clip-path="url(#clip0_6004_4574)">
<path id="Vector" d="M15.8525 7.38344L14.2222 5.76375V1.5C14.2222 1.36739 14.1754 1.24021 14.092 1.14645C14.0087 1.05268 13.8957 1 13.7778 1H12C11.8821 1 11.7691 1.05268 11.6857 1.14645C11.6024 1.24021 11.5556 1.36739 11.5556 1.5V3.11469L8.74389 0.321875C8.56944 0.144063 8.23694 0 8 0C7.76306 0 7.43167 0.144063 7.25722 0.321875L0.146111 7.38438C0.058495 7.48396 0.00649114 7.61632 0 7.75625C0.00567692 7.87847 0.045428 7.99557 0.113611 8.09094L0.708333 8.83438C0.801022 8.92795 0.917755 8.98595 1.04167 9C1.1491 8.98792 1.25166 8.94356 1.33861 8.87156L1.78028 8.43406V15C1.78028 15.2652 1.87393 15.5196 2.04063 15.7071C2.20733 15.8946 2.43342 16 2.66917 16H13.3333C13.5691 16 13.7952 15.8946 13.9619 15.7071C14.1286 15.5196 14.2222 15.2652 14.2222 15V8.43375L14.6642 8.87125C14.7515 8.94315 14.8543 8.98759 14.9619 9C15.0847 8.98556 15.2003 8.92743 15.2917 8.83406L15.8864 8.09C15.9502 7.99214 15.9895 7.87674 16 7.75594C15.9872 7.6173 15.9356 7.48683 15.8525 7.38344ZM8 5.5C8.35161 5.5 8.69533 5.6173 8.98768 5.83706C9.28003 6.05682 9.5079 6.36918 9.64245 6.73463C9.77701 7.10009 9.81221 7.50222 9.74362 7.89018C9.67502 8.27814 9.5057 8.63451 9.25708 8.91421C9.00845 9.19392 8.69168 9.3844 8.34683 9.46157C8.00197 9.53874 7.64452 9.49913 7.31967 9.34776C6.99483 9.19638 6.71718 8.94004 6.52183 8.61114C6.32649 8.28224 6.22222 7.89556 6.22222 7.5C6.22222 6.96957 6.40952 6.46086 6.74292 6.08579C7.07632 5.71071 7.5285 5.5 8 5.5ZM11.1111 14H4.88889C4.77101 14 4.65797 13.9473 4.57462 13.8536C4.49127 13.7598 4.44444 13.6326 4.44444 13.5C4.44444 12.7044 4.7254 11.9413 5.22549 11.3787C5.72559 10.8161 6.40387 10.5 7.11111 10.5H8.88889C9.59613 10.5 10.2744 10.8161 10.7745 11.3787C11.2746 11.9413 11.5556 12.7044 11.5556 13.5C11.5556 13.6326 11.5087 13.7598 11.4254 13.8536C11.342 13.9473 11.229 14 11.1111 14Z" fill="white"/>
</g>
<defs>
<clipPath id="clip0_6004_4574">
<rect width="16" height="16" fill="white"/>
</clipPath>
</defs>
</svg>
