<svg width="16" height="16" viewBox="0 0 16 16" fill="none" xmlns="http://www.w3.org/2000/svg">
<g id="receipt" clip-path="url(#clip0_6610_2279)">
<path id="Vector" d="M14.9333 0.0998651L13.3333 1.49987L11.0667 0.0998651C10.9515 0.034469 10.8111 -0.000923088 10.6667 -0.000923088C10.5223 -0.000923088 10.3818 0.034469 10.2667 0.0998651L8 1.49987L5.73333 0.0998651C5.61821 0.034469 5.47775 -0.000923088 5.33333 -0.000923088C5.18892 -0.000923088 5.04846 0.034469 4.93333 0.0998651L2.66667 1.49987L1.06667 0.0998651C0.625 -0.14701 0 0.0873651 0 0.499865V15.4999C0 15.9124 0.625 16.1467 1.06667 15.8999L2.66667 14.4999L4.93333 15.8999C5.04846 15.9653 5.18892 16.0007 5.33333 16.0007C5.47775 16.0007 5.61821 15.9653 5.73333 15.8999L8 14.4999L10.2667 15.8999C10.3818 15.9653 10.5223 16.0007 10.6667 16.0007C10.8111 16.0007 10.9515 15.9653 11.0667 15.8999L13.3333 14.4999L14.9333 15.8999C15.3708 16.1467 16 15.9124 16 15.4999V0.499865C16 0.0873651 15.375 -0.14701 14.9333 0.0998651ZM13.3333 11.2499C13.3333 11.3874 13.1833 11.4999 13 11.4999H3C2.81667 11.4999 2.66667 11.3874 2.66667 11.2499V10.7499C2.66667 10.6124 2.81667 10.4999 3 10.4999H13C13.1833 10.4999 13.3333 10.6124 13.3333 10.7499V11.2499ZM13.3333 8.24987C13.3333 8.38737 13.1833 8.49987 13 8.49987H3C2.81667 8.49987 2.66667 8.38737 2.66667 8.24987V7.74987C2.66667 7.61237 2.81667 7.49987 3 7.49987H13C13.1833 7.49987 13.3333 7.61237 13.3333 7.74987V8.24987ZM13.3333 5.24987C13.3333 5.38736 13.1833 5.49987 13 5.49987H3C2.81667 5.49987 2.66667 5.38736 2.66667 5.24987V4.74987C2.66667 4.61237 2.81667 4.49987 3 4.49987H13C13.1833 4.49987 13.3333 4.61237 13.3333 4.74987V5.24987Z" fill="#A49894"/>
</g>
<defs>
<clipPath id="clip0_6610_2279">
<rect width="16" height="16" fill="white"/>
</clipPath>
</defs>
</svg>
