<svg width="16" height="14" viewBox="0 0 16 14" fill="none" xmlns="http://www.w3.org/2000/svg">
<g id="tachometer-alt" clip-path="url(#clip0_6004_4570)">
<path id="Vector" d="M8 0.874878C3.58167 0.874878 0 4.40058 0 8.74988C0 10.1936 0.395833 11.546 1.085 12.7093C1.24083 12.9723 1.53778 13.1249 1.84722 13.1249H14.1528C14.4622 13.1249 14.7592 12.9723 14.915 12.7093C15.6042 11.546 16 10.1936 16 8.74988C16 4.40058 12.4183 0.874878 8 0.874878ZM8 2.62488C8.40861 2.62488 8.73833 2.90187 8.84222 3.27156C8.81139 3.33335 8.76889 3.38722 8.74639 3.45394L8.49028 4.21054C8.34778 4.30597 8.18556 4.37488 8.00028 4.37488C7.50944 4.37488 7.11139 3.98304 7.11139 3.49988C7.11139 3.01671 7.50917 2.62488 8 2.62488ZM2.66667 10.4999C2.17583 10.4999 1.77778 10.108 1.77778 9.62488C1.77778 9.14171 2.17583 8.74988 2.66667 8.74988C3.1575 8.74988 3.55556 9.14171 3.55556 9.62488C3.55556 10.108 3.1575 10.4999 2.66667 10.4999ZM4 6.12488C3.50917 6.12488 3.11111 5.73304 3.11111 5.24988C3.11111 4.76671 3.50917 4.37488 4 4.37488C4.49083 4.37488 4.88889 4.76671 4.88889 5.24988C4.88889 5.73304 4.49083 6.12488 4 6.12488ZM10.8547 4.14492L9.15111 9.17617C9.53139 9.49718 9.77778 9.96777 9.77778 10.4999C9.77778 10.8203 9.68389 11.1165 9.53111 11.3749H6.46889C6.31611 11.1165 6.22222 10.8203 6.22222 10.4999C6.22222 9.57183 6.95833 8.82015 7.88611 8.76109L9.59 3.72957C9.70583 3.38613 10.0825 3.19773 10.4333 3.31476C10.7825 3.42933 10.9708 3.80121 10.8547 4.14492ZM11.2619 5.70898L11.6931 4.43613C11.7894 4.40085 11.8911 4.37515 12 4.37515C12.4908 4.37515 12.8889 4.76699 12.8889 5.25015C12.8889 5.73331 12.4908 6.12515 12 6.12515C11.6839 6.12488 11.4197 5.95343 11.2619 5.70898ZM13.3333 10.4999C12.8425 10.4999 12.4444 10.108 12.4444 9.62488C12.4444 9.14171 12.8425 8.74988 13.3333 8.74988C13.8242 8.74988 14.2222 9.14171 14.2222 9.62488C14.2222 10.108 13.8242 10.4999 13.3333 10.4999Z" fill="#A49894"/>
</g>
<defs>
<clipPath id="clip0_6004_4570">
<rect width="16" height="14" fill="white"/>
</clipPath>
</defs>
</svg>
