<svg width="12" height="14" viewBox="0 0 12 14" fill="none" xmlns="http://www.w3.org/2000/svg">
<g id="times" clip-path="url(#clip0_6004_4431)">
<path id="Vector" d="M8.27455 7.00024L11.686 4.26395C12.1047 3.92817 12.1047 3.38376 11.686 3.0477L10.9278 2.43958C10.5092 2.1038 9.83045 2.1038 9.41148 2.43958L6 5.17587L2.58852 2.43958C2.16989 2.1038 1.49114 2.1038 1.07216 2.43958L0.313977 3.0477C-0.104659 3.38349 -0.104659 3.9279 0.313977 4.26395L3.72545 7.00024L0.313977 9.73653C-0.104659 10.0723 -0.104659 10.6167 0.313977 10.9528L1.07216 11.5609C1.4908 11.8967 2.16989 11.8967 2.58852 11.5609L6 8.82462L9.41148 11.5609C9.83011 11.8967 10.5092 11.8967 10.9278 11.5609L11.686 10.9528C12.1047 10.617 12.1047 10.0726 11.686 9.73653L8.27455 7.00024Z" fill="white"/>
</g>
<defs>
<clipPath id="clip0_6004_4431">
<rect width="12" height="14" fill="white"/>
</clipPath>
</defs>
</svg>
